# xmcd
#
# Track frame offsets:
#	150
#	38005
#	55780
#	66870
#	86175
#	112722
#	147150
#	165372
#	186912
#	209275
#
# Disc length: 3072 seconds
#
# Revision: 3
# Processed by: cddbd v1.4PL0 Copyright (c) Steve Scherf et al.
# Submitted via: EasyCDDAExtractor 5.0.7
#
DISCID=810bfe0a
DTITLE=Falco - 3
DYEAR=1985
DGENRE=Pop
TTITLE0=Rock Me Amadeus(The Solieri Version)(3 US CD Version)
TTITLE1=America(The City Of Grinzing Version)(3 US CD Version)
TTITLE2=Tango The Night(The Love Mix)(3 US CD Version)
TTITLE3=Munich Girls(Lookin' For Love)(Just Another Paid One)(3 US CD Version)
TTITLE4=Jeanny(Sus-Mix Spect Crime Version)(3 US CD Version)
TTITLE5=Vienna Calling(The Metternich Arrival-Mix)(3 US CD Version)
TTITLE6=Manner Des Westens -- Any Kind Of Land(Wilde Bube Version)(3 US CD Ver
TTITLE6=sion)
TTITLE7=Nothin' Sweeter Than Arabia(The Relevant Madhouse Danceteria Jour-Fix-
TTITLE7=Mix)(3 US CD Version)
TTITLE8=Macho Macho(Sensible Boy's Song)(3 US CD Version)
TTITLE9=It's All Over Now, Baby Blue(No Mix)(3 US CD Version)
EXTD=
EXTT0=
EXTT1=
EXTT2=
EXTT3=
EXTT4=
EXTT5=
EXTT6=
EXTT7=
EXTT8=
EXTT9=
PLAYORDER=
